<svg xmlns="http://www.w3.org/2000/svg" viewBox="0 0 512 512">
  <defs>
    <linearGradient id="bg" x1="0%" y1="0%" x2="100%" y2="100%">
      <stop offset="0%" stop-color="#0f172a" />
      <stop offset="100%" stop-color="#1e293b" />
    </linearGradient>
    <linearGradient id="accent" x1="0%" y1="0%" x2="0%" y2="100%">
      <stop offset="0%" stop-color="#22d3ee" />
      <stop offset="100%" stop-color="#06b6d4" />
    </linearGradient>
  </defs>
  <rect width="512" height="512" rx="96" fill="url(#bg)" />
  <g transform="translate(86 92)">
    <rect x="24" y="36" width="280" height="248" rx="36" fill="#111827" stroke="#334155" stroke-width="10" />
    <rect x="58" y="58" width="212" height="16" rx="8" fill="#94a3b8" />
    <rect x="58" y="106" width="212" height="12" rx="6" fill="#64748b" />
    <rect x="58" y="154" width="212" height="12" rx="6" fill="#64748b" />
    <rect x="58" y="202" width="212" height="12" rx="6" fill="#64748b" />
    <circle cx="118" cy="106" r="16" fill="url(#accent)" />
    <circle cx="206" cy="154" r="16" fill="url(#accent)" />
    <circle cx="250" cy="202" r="16" fill="url(#accent)" />
    <path d="M326 92c36 24 48 78 24 118-18 30-50 48-84 48" fill="none" stroke="#22d3ee" stroke-width="16" stroke-linecap="round" />
  </g>
</svg>
